<?xml version="1.0" encoding="UTF-8"?>
<!DOCTYPE svg PUBLIC "-//W3C//DTD SVG 1.1//EN" "http://www.w3.org/Graphics/SVG/1.1/DTD/svg11.dtd">
<!-- Creator: CorelDRAW -->
<?xml-stylesheet href="cONTACTS.css" type="text/css"?>
<svg xmlns="http://www.w3.org/2000/svg" xml:space="preserve" width="297mm" height="210mm" style="shape-rendering:geometricPrecision; text-rendering:geometricPrecision; image-rendering:optimizeQuality; fill-rule:evenodd; clip-rule:evenodd"
viewBox="0 0 297 210"
 xmlns:xlink="http://www.w3.org/1999/xlink">
 <g id="Слой_x0020_1">
  <metadata id="CorelCorpID_0Corel-Layer"/>
  <g id="_101739960">
   <path id="_101739696" class="fil0" d="M199.004 111.974c-0.0005,-0.0034 -0.0008,-0.0067 -0.0013,-0.0102 0.0005,0.0035 0.0008,0.0068 0.0013,0.0102z"/>
   <path id="_101738736" class="fil0" d="M199.185 113.595c0.0005,-0.0016 0.001,-0.0029 0.0013,-0.0042 -0.0003,0.0013 -0.0008,0.0026 -0.0013,0.0042z"/>
   <path id="_101739480" class="fil0" d="M140.814 80.6161c0.0048,-0.0576 0.1101,-0.192 0.1657,-0.3644 0.8363,-2.593 1.2806,-6.8835 -1.2,-8.8121 -0.0232,-0.0178 0.2674,0.4305 0.2408,0.4112 -0.3007,-0.2208 -0.6018,-0.2146 -0.7315,-0.3007 1.2791,3.0019 1.8126,6.8107 -0.0772,9.7216 0.0042,-0.0389 0.1986,-0.5986 0.238,-0.8046 0.0668,-0.3461 0.1174,-0.6954 0.1236,-1.0489 0.0129,-0.7241 -0.1358,-1.5736 -0.3348,-2.2646 -0.1867,-0.6492 -0.4771,-1.1439 -0.8863,-1.7347 -1.5363,-2.2156 -5.5519,-3.1996 -8.0897,-2.5998 -1.4173,0.8951 -0.003,3.2297 0.0805,4.4489 0.5434,2.2685 1.8978,3.8066 3.7544,5.0729 1.6015,0.5784 4.4828,1.8193 5.7639,0.1098 0.3538,-0.4723 0.72,-1.2927 0.9526,-1.8346z"/>
   <path id="_101739720" class="fil0" d="M153.28 98.9781c0.0215,0.0002 0.0445,-0.0001 0.0697,-0.0009l0.31 -0.0108c1.0421,-0.0359 0.7166,-0.9045 1.8203,-0.6777l0.904 -0.3241 0.28 -0.2862c0.1045,-0.0119 -0.3871,0.5129 -0.0211,0.3008 0.2424,-0.127 0.4891,-0.4302 0.7098,-0.8621 0.0485,-0.095 0.3455,-0.5708 0.5403,-1.0215 0.095,-0.2198 0.1914,-0.4355 0.271,-0.5968 0.1458,-0.2952 0.0584,-0.4206 0.1374,-0.065 0.1065,-0.0712 0.1421,-0.1004 0.1712,-0.1836 0.3076,-0.8744 0.1467,-1.675 0.1295,-2.178l0.0075 -0.844c0.0032,-0.3974 -0.1299,-0.8131 -0.203,-1.232 -0.0644,-0.3697 -0.0953,-0.7431 -0.2269,-1.1087 -0.109,-0.3023 -0.1279,-0.6148 -0.2134,-0.9255 -0.1098,-0.3993 -0.2823,-0.7962 -0.3893,-1.1664 -0.2275,-0.7889 -0.3637,-1.0201 -0.6719,-1.6015 -0.2576,-0.4861 -0.9512,-1.5868 -1.1778,-2.0905 -0.4497,-0.6558 -1.0228,-1.4201 -1.5301,-2.0202 -0.7472,-0.8839 -1.4761,-1.8777 -2.2568,-2.7503 -0.2401,-0.2679 -0.5012,-0.5405 -0.7255,-0.8241 -0.4729,-0.5978 -1.1332,-1.1784 -1.6022,-1.5784 -0.2305,-0.1966 -0.7475,-0.5805 -0.9732,-0.7639 -0.5067,-0.3989 -1.1182,-0.6499 -1.7228,-0.7705 -0.2789,-0.0557 -0.563,-0.0942 -0.8462,-0.0973 -0.1937,-0.002 -0.3873,0.0276 -0.5786,0.0186 -0.1991,-0.0091 -0.4002,0.0602 -0.6012,0.0571l-0.8662 0.3068c-0.4696,0.2214 -0.6531,0.3705 -0.8466,0.6733 -0.1507,0.2355 -0.3275,0.5644 -0.5251,1.0928 -0.0098,0.2979 -0.0954,0.5893 -0.1059,0.88 -0.0135,0.3739 0.0526,0.747 0.0989,1.1313 0.0275,0.2262 0.1141,0.4356 0.1694,0.5541 0.0921,0.2457 0.2976,0.5429 0.423,0.7426 0.2088,0.3329 0.5571,0.532 0.8435,0.7757 0.057,0.0798 0.419,0.2107 0.7885,0.3392 0.1062,0.0369 0.6992,0.1296 1.2198,0.0828 0.3559,-0.0323 0.6528,-0.0615 0.841,-0.1166 0.1702,-0.0599 0.3477,-0.1377 0.5014,-0.2162 0.2252,-0.1146 0.4212,-0.3691 0.6328,-0.5265l0.2597 -0.4766 0.1281 -0.3403c0.0081,0.0698 0.0949,0.4276 0.1557,0.6019 0.0782,0.224 0.1352,0.5102 0.2249,0.7931 0.1408,0.4439 0.2319,0.8809 0.2739,1.0626 0.3543,1.5367 0.4384,3.1258 -0.054,4.6321 -0.1836,0.5621 -0.3064,1.1778 -0.5827,1.7765 -0.3109,0.6736 -0.7101,1.3267 -1.0477,1.8597 -0.6273,0.9899 -0.8948,0.5627 -1.8895,0.9835 -1.1296,0.0582 -1.6192,-0.9941 -1.8371,-1.874 -0.0912,-0.3699 -0.071,-0.9133 -0.0064,-1.2792 0.0222,-0.1261 0.0417,-0.2571 0.0699,-0.3861 0.033,-0.1496 0.087,-0.3001 0.1451,-0.4455 0.0701,-0.1757 0.1481,-0.2793 0.206,-0.4356 0.1363,-0.3663 0.1752,-0.2603 0.1671,-0.3944 -0.2199,0.3355 -0.2665,0.373 -0.392,0.5756 -0.1383,0.2224 -0.2875,0.4915 -0.3915,0.7317 -0.0554,0.128 -0.1732,0.4481 -0.2037,0.5231 -0.1485,0.3618 -0.2271,0.6424 -0.2498,0.9598 -0.0607,0.8552 -0.2153,1.5492 0.4995,2.363 0.6803,0.7741 2.0894,1.0176 2.4322,0.861l1.1288 -0.0554c0.1898,-0.2266 0.5739,0.0028 0.5976,0.114l1.3563 1.5924c0.3847,0.4093 0.8624,0.8186 1.2469,1.2278 0.3759,0.5695 1.0921,0.5361 1.4934,1.3336 0.5164,0.4782 1.0533,1.0168 1.4841,1.5799zm-8.8799 -20.1536l0 0c0.0801,-0.4143 0.2195,-0.6032 0.3893,-0.7444 0.1697,-0.1415 0.3704,-0.2355 0.5057,-0.3243 0.5189,-0.204 0.771,-0.261 1.3232,-0.0538 0.4727,0.1774 0.9972,0.8068 1.2225,1.2502 0.0967,0.1911 0.1812,0.3725 0.2299,0.466 0.1516,0.2917 0.156,0.3111 0.2154,0.5328 -0.1914,0.1729 -0.1071,0.3224 -0.3103,0.4993 -0.173,0.1507 -0.496,0.4228 -0.7124,0.4814 -0.5096,0.1379 -0.5621,0.0498 -1.0217,0.0745 -1.1098,0.0385 -1.8612,-1.036 -1.8952,-2.0261l0.0536 -0.1556z"/>
   <path id="_101739816" class="fil0" d="M154.251 72.2892c0.406,-0.2388 0.8343,-0.3498 1.1831,-0.4763 0.2791,-0.1011 0.5944,-0.2039 0.9137,-0.2704 0.3195,-0.0667 0.6431,-0.1645 0.9388,-0.1974 0.3877,-0.043 0.7842,-0.0143 1.1798,-0.0158 0.6337,-0.0023 1.2456,0.0316 1.8526,0.2365 0.781,0.2638 1.5229,0.7376 2.0419,1.3027l0.4365 0.7919c0.0208,0.1691 0.0987,0.3288 0.1358,0.4885 0.0812,0.3519 0.1335,0.6928 0.1409,1.0541 0.0065,0.3152 -0.0034,0.756 -0.2024,1.1322l-0.1354 0.308 -0.1718 0.3105 -0.3032 0.3467 -0.3047 0.2558c-0.1842,0.1512 -0.6652,0.492 -0.9452,0.5984 -0.1965,0.1156 -0.5005,0.1337 -0.7375,0.3197 0.0374,0.1893 0.1656,0.4284 0.2824,0.6935 0.0698,0.1588 0.2047,0.3151 0.2872,0.4857 0.081,0.1678 0.2148,0.2802 0.3238,0.4427 0.0847,0.1263 0.2466,0.1914 0.3391,0.3075 0.0825,0.1035 0.2308,0.1138 0.3181,0.2062 0.1044,0.1101 0.2721,0.0721 0.4865,0.2019 0.1185,0.0718 0.2566,0.0049 0.3638,0.1742 0.0694,0.1105 0.1517,0.1394 0.1772,0.2495 0.0252,0.1099 -0.0068,0.3009 -0.0107,0.3888 -0.0048,0.1052 -0.0242,0.1566 -0.0515,0.2888 -0.0406,0.1962 -0.1075,0.213 -0.2236,0.3365 -0.1163,0.1235 -0.2826,0.3066 -0.5211,0.3919 -0.0952,0.0341 -0.2481,0.1353 -0.5039,0.1583 -0.3025,0.027 -0.5977,0.1037 -0.8956,0.1322 -0.4968,0.0481 -0.9956,0.0415 -1.5079,0.0273 -1.3548,-0.0371 -2.5301,-0.2167 -3.5727,-0.8156 -0.5463,-0.3139 -1.1664,-0.7354 -1.6465,-1.3192 -0.3875,-0.4716 -0.7758,-1.0192 -1.1111,-1.6076 -0.3939,-0.6905 -0.5425,-1.4502 -0.7054,-2.1969 -0.0444,-0.2024 -0.0291,-0.4091 -0.0344,-0.6114 -0.009,-0.3377 -0.0174,-0.6706 0.032,-0.9945 0.1337,-0.8788 0.5391,-1.743 1.129,-2.3173 0.2979,-0.29 0.6452,-0.5858 1.0224,-0.8076zm5.5253 4.1887l0 0c0.0489,0.2406 0.0593,0.4913 0.1143,0.7292 0.0488,0.2103 0.0801,0.4533 0.194,0.7132 0.232,-0.0494 0.6745,-0.1826 0.9302,-0.4317 0.272,-0.265 0.5215,-0.6269 0.6825,-0.9981 0.2206,-0.5089 0.2656,-0.9634 0.0761,-1.2838 -0.0909,-0.1531 -0.2979,-0.3004 -0.4395,-0.3425 -0.3628,-0.1084 -0.7381,-0.0995 -0.559,-0.0891 -0.3467,-0.0463 -0.6081,0.2292 -0.7999,0.5745 -0.0745,0.1343 -0.1069,0.2769 -0.1538,0.4171 -0.0351,0.1048 -0.0313,0.2053 -0.036,0.2979 -0.0069,0.1385 -0.0329,0.2388 -0.0089,0.4133z"/>
   <path id="_101738952" class="fil0" d="M197.221 110.876c-0.0005,-0.0035 -0.001,-0.0066 -0.0016,-0.0102 0.0006,0.0036 0.0011,0.0068 0.0016,0.0102z"/>
   <path id="_101739912" class="fil0" d="M197.402 112.497c0.0003,-0.0016 0.0008,-0.0029 0.0012,-0.0043 -0.0004,0.0014 -0.0009,0.0027 -0.0012,0.0043z"/>
   <path id="_101740080" class="fil0" d="M197.114 109.098c0.179,-1.6586 -0.0986,-3.9146 -1.1506,-5.2545 -2.093,-2.4675 -5.2363,-2.7601 -8.219,-2.5089 -1.0414,0.3375 -0.5702,1.7257 -0.5702,2.4846 0,1.2926 0.1133,2.6825 0.7726,3.8459 0.3162,0.4004 0.5066,0.9484 0.7577,1.3986 0.5689,0.7226 1.0614,1.1986 1.8411,1.8122 0.8717,0.4857 1.5282,1.2283 2.5506,1.3957 1.2513,0.1737 2.4756,0.5685 3.6455,0.0371l-0.0132 0.0247c-0.0012,-0.0219 0.0588,-0.0557 0.0698,-0.0835 1.6011,-1.688 2.3726,-4.0088 2.587,-6.2785 0.0685,-1.238 0.0314,-3.0888 -0.6276,-4.1532 -0.7224,-1.1667 -0.7091,-1.1677 -1.7696,-1.9979 0.3802,0.439 -0.2697,0.0147 0.0649,0.4855l-0.4922 -0.2829c0.0524,0.2122 0.2421,0.3463 -0.062,0.3819 -0.0899,0.315 0.32,0.9671 0.4703,1.2134 0.2837,0.4647 0.5016,0.9147 0.6944,1.3812 0.6468,1.5663 0.6706,3.5105 0.1974,5.1646 -0.0714,0.2497 -0.164,0.503 -0.2615,0.7642 -0.2671,0.7162 -0.6313,1.3463 -0.9846,1.6345 0.3145,-0.34 0.4134,-1.1017 0.4992,-1.4647z"/>
   <path id="_101740488" class="fil0" d="M175.243 70.9931c-0.4763,0.1889 -0.9387,0.4308 -1.2965,0.8347 -0.2326,0.2628 -0.4936,0.5517 -0.6491,0.88l-0.2377 0.4713 -0.2527 0.6444c-0.0313,0.2036 -0.0923,0.3814 -0.0954,0.5738 -0.0042,0.2596 -0.0382,0.5237 -0.0503,0.7891 -0.0119,0.2652 0.0647,0.5291 0.0698,0.7978l0.108 0.8081 0.2095 0.818c0.5716,1.4842 1.2501,2.5092 2.5668,3.447 0.4081,0.3318 1.1161,0.5342 1.6687,0.7498 0.2503,0.0976 1.1544,0.2235 1.4331,0.2677 0.5787,0.0722 0.855,0.0531 1.4179,0.0065 0.635,-0.0631 1.4264,-0.243 1.7884,-0.53l0.3865 -0.2848 0.2578 -0.7005 -0.1315 -0.6701 -0.3655 -0.1455c-0.2957,-0.1313 -0.4112,-0.1176 -0.6419,-0.2104l-0.3885 -0.2447 -0.4225 -0.4764 -0.2742 -0.5312 -0.2518 -0.6915 0.4082 -0.1161 0.3903 -0.1296 0.2809 -0.1024 0.3557 -0.1693 0.3953 -0.2452 0.3775 -0.2901 0.3167 -0.3828c0.0519,-0.154 0.1616,-0.3724 0.218,-0.532 0.0562,-0.1595 0.0878,-0.4102 0.1275,-0.5639 0.0989,-0.3789 0.0216,-1.2038 -0.1286,-1.5384 -0.056,-0.2119 -0.1655,-0.5671 -0.3002,-0.8528 -0.0753,-0.1268 -0.2663,-0.4259 -0.3252,-0.5166 -0.2333,-0.3593 -0.6664,-0.6675 -1.0659,-0.9304 -0.1818,-0.1191 -0.3588,-0.1544 -0.5299,-0.2389 -0.0665,-0.0329 -0.1426,-0.0706 -0.2288,-0.1139 -0.2178,-0.1095 -0.7201,-0.2319 -1.2111,-0.3227 -0.329,-0.0607 -0.7987,-0.093 -1.2751,-0.0908 -0.5083,0.002 -1.0894,0.0605 -1.6208,0.1989 -0.3333,0.0871 -0.7134,0.2072 -1.0334,0.3339zm4.5195 4.4762l0 0c0.0263,-0.1826 0.0251,-0.3624 0.0687,-0.5261 0.0337,-0.1274 0.1026,-0.2453 0.1833,-0.3447 0.0839,-0.1031 0.2314,-0.2126 0.3775,-0.2805 0.0869,-0.0405 0.1547,-0.0503 0.2048,-0.0709 0.1257,-0.051 0.2872,-0.0579 0.4494,-0.0694 0.184,-0.013 0.3722,0.025 0.5154,0.0882 0.0584,0.0258 0.1333,0.0541 0.1988,0.1342 0.0659,0.0802 0.0919,0.1573 0.1074,0.2014 0.0425,0.122 0.0662,0.267 0.068,0.4175 0.0008,0.0684 -0.0065,0.1177 -0.0007,0.1892 -0.0022,0.0697 -0.0077,0.1273 -0.019,0.1877 -0.0098,0.0537 -0.0217,0.106 -0.0294,0.1565 -0.0211,0.1395 -0.054,0.2957 -0.1735,0.4769 -0.1578,0.3025 -0.4062,0.5839 -0.6794,0.7577 -0.303,0.1932 -0.7339,0.3651 -1.0415,0.3975l-0.0872 -0.345 -0.0597 -0.4023 -0.0511 -0.3734 -0.0263 -0.3102 -0.0055 -0.2843z"/>
   <path id="_101740392" class="fil0" d="M165.566 74.0605l-0.4392 -0.3546 -0.5452 -0.3305 -0.7113 -0.1982 -0.1117 0.1607c-0.0138,0.02 -0.1507,-0.0651 -0.067,0.0738 0.0838,0.1387 0.175,0.3482 0.2236,0.4999 0.0484,0.1512 0.0965,0.191 0.1361,0.4074 0.0394,0.2163 0.0569,0.5555 0.0559,0.58l-0.0444 1.0397 -0.0841 1.6125 -0.0026 0.8595 0.2422 1.727 0.1847 0.4315 0.4315 0.4782 0.5504 0.3785c0.1729,0.1188 0.952,0.1635 1.1405,0.0159 0.1879,-0.1476 0.0512,-0.1544 0.2027,-0.425 0.1513,-0.2708 0.2862,-0.6045 0.2384,-1.2229 -0.0475,-0.6186 -0.1872,-2.0172 -0.2962,-2.5691 -0.1087,-0.5518 -0.1515,-0.4639 -0.1645,-0.9116 -0.0131,-0.4475 -0.4441,-1.5758 -0.5227,-1.8203 -0.0784,-0.2446 0.0688,-0.1681 0.1754,-0.3103 0.1067,-0.1424 0.2591,-0.2019 0.3165,-0.2476 0.0578,-0.046 0.2445,-0.0865 0.3647,-0.0876 0.1203,-0.001 0.247,0.0186 0.3343,0.0478 0.0875,0.0292 0.1251,0.0379 0.1854,0.0689 0.0602,0.031 0.1244,0.0711 0.1739,0.1069 0.0494,0.0359 0.0893,0.071 0.1337,0.1137 0.0448,0.0429 0.0818,0.1043 0.1224,0.1656 0.0406,0.0615 0.093,0.1512 0.1053,0.2128 0.0123,0.0616 0.033,0.1034 0.0464,0.157 0.0137,0.0538 0.0185,0.11 0.0297,0.1623 0.0109,0.0523 0.0411,0.2535 0.0487,0.4127 0.0075,0.159 -0.009,-0.0413 0.0048,0.2798 0.0135,0.321 -0.003,0.1188 -0.011,0.3032 -0.0084,0.1847 -0.0213,0.2537 -0.0387,0.5941 -0.0175,0.3405 0.0759,1.4168 0.1541,1.7951 0.0777,0.3782 0.0921,0.3392 0.1291,0.4987 0.037,0.1597 0.0709,0.2588 0.1387,0.4553 0.068,0.1959 0.2418,0.5369 0.3151,0.7222 0.0733,0.1852 0.1155,0.2418 0.2307,0.4011 0.115,0.1594 0.3517,0.4902 0.5348,0.6921 0.1832,0.202 0.4418,0.3928 0.6287,0.5182 0.1868,0.1255 0.2208,0.0989 0.5904,0.3023 0.1944,0.1069 0.3894,0.1241 0.5817,0.16 0.4914,0.0914 1.234,-0.0686 1.4274,-0.5857 0.0521,-0.1392 0.0332,-0.286 -0.0165,-0.4322 -0.0299,-0.0875 -0.1415,-0.3287 -0.1852,-0.4139 -0.1091,-0.2134 -0.1291,-0.3548 -0.1888,-0.5883 -0.0251,-0.0987 -0.0424,-0.1931 -0.0539,-0.2864 -0.0346,-0.28 -0.0733,-0.5536 -0.0735,-0.9251l-0.0003 -1.1466 -0.0244 -1.1063 -0.1236 -1.0068c-0.0146,-0.1195 -0.2844,-0.9669 -0.4825,-1.196 -0.1979,-0.2294 -0.4542,-0.665 -0.9931,-1.1103 -0.539,-0.4453 -0.305,-0.2783 -0.5024,-0.4105 -0.1969,-0.1322 -0.4391,-0.1934 -0.5527,-0.2321 -0.1136,-0.0384 -0.2275,-0.1001 -0.5601,-0.1536 -0.3325,-0.0537 -0.7527,-0.0662 -0.9309,-0.0591 -0.1782,0.0077 -0.7847,0.1479 -1.0054,0.2734 -0.2205,0.1254 -0.2025,0.165 -0.3456,0.2606 -0.1432,0.0955 -0.2674,0.1941 -0.5224,0.4289 -0.2551,0.2352 -0.486,0.8075 -0.578,0.7333z"/>
   <path id="_101740296" class="fil0" d="M126.735 100.598l0.2279 0.177 -0.1004 0.9016 -0.1621 1.4702c-0.1207,1.1142 -0.245,2.0673 -0.4576,3.1964 -0.2108,1.1207 -0.3449,2.0143 -0.4304,3.3248 -0.0887,1.3547 -0.2786,2.4087 -0.3648,3.5982 -0.0292,0.3994 -0.181,1.2333 -0.2702,1.6732 -0.0171,0.0836 -0.0366,0.17 -0.0568,0.258 0.0524,-0.0196 0.1052,-0.0398 0.1584,-0.0613l0.4897 -1.7681c0.1024,-1.5723 0.719,-3.5087 0.9386,-5.2838 0.2422,-1.9586 0.4881,-3.4232 0.6167,-5.3875l0.0616 -0.7377 -0.0049 -5.1834 -0.0657 -0.0047c-0.0521,0.7991 -0.0926,3.7018 -0.58,3.8271z"/>
   <path id="_101740152" class="fil0" d="M128.761 29.6254l-0.2575 -0.048 -0.3447 -0.0104 -0.3946 0.0111 -0.565 0.0726c-0.2474,0.0657 -0.4544,0.0939 -0.6306,0.1364 -0.3884,0.0933 -0.6296,0.1671 -0.832,0.236 -0.3788,0.1287 -0.6235,0.2917 -1.4458,0.5992 -2.4848,1.4243 -3.625,2.5305 -5.7099,4.4605 -0.4049,0.3364 -1.1774,1.213 -2.1655,2.5267 -1.432,1.9048 -3.3382,4.6989 -4.7917,7.9557 -1.8387,4.1202 -3.4966,10.0436 -3.6216,12.5121l-0.0488 0.8582 0.148 -0.1098 0.1383 -0.1027 0.0113 -0.0087 0.1514 -0.1123 0.0723 -0.0539 0.0803 -0.0597c0.4085,-0.3045 0.8312,-0.6203 1.2566,-0.9393l0.1257 -0.0941 0.0342 -0.0255 0.16 -0.1199 0.1598 -0.12 0.1423 -0.1072 0.0173 -0.013 0.16 -0.1201 0.0705 -0.0531 0.0886 -0.0667 0.3171 -0.2386 0.0863 -0.0651 0.0716 -0.0537 0.1568 -0.1184 0.0152 -0.0114 0.1404 -0.106 0.1551 -0.1167 0.1535 -0.116 0.0308 -0.0234 0.1216 -0.0917 0.1138 -0.086 0.037 -0.0279 0.1494 -0.1127 0.0451 -0.0344 0.1024 -0.0775 0.1253 -0.0946 0.0207 -0.0157 0.1439 -0.109 0.0582 -0.044 0.0835 -0.0633 0.1345 -0.1019 0.0053 -0.004 0.1373 -0.1041 0.0698 -0.0529 0.0651 -0.0495 0.1325 -0.1004 0.0087 -0.0067 0.1212 -0.092 0.079 -0.0597 0.0481 -0.0364 0.1241 -0.0944 0.0206 -0.0157 0.1003 -0.0764 0.0855 -0.0649 0.0325 -0.0246 0.1144 -0.0873 0.0308 -0.0234 0.0805 -0.0612 0.089 -0.0679 0.0185 -0.0143 0.1042 -0.0792 0.0381 -0.029 0.0621 -0.0475 0.0897 -0.0684 0.0068 -0.005 0.0922 -0.0706 0.0429 -0.0329 0.0453 -0.0345 0.084 -0.0641 0.0025 -0.0021 0.0768 -0.0588 0.0445 -0.0341 0.0304 -0.0234 0.0708 -0.054 0.0089 -0.0071 0.0565 -0.0432 0.0423 -0.0327 0.0183 -0.0142 0.0557 -0.0429 0.0128 -0.0097 0.038 -0.0294 0.0364 -0.0281 0.0089 -0.007 0.04 -0.0309 0.0124 -0.0098 0.0218 -0.0172 0.0261 -0.0206 0.003 -0.0022 0.023 -0.0181 0.0085 -0.0068 0.0022 -0.002 0.0177 -0.0144 0.0027 -0.0022 0.0035 -0.0026 0.0044 -0.0032 0.0053 -0.0038 0.0062 -0.0042 0.0069 -0.0051 0.008 -0.0053 0.0088 -0.0059 0.0093 -0.0066 0.0103 -0.0069 0.0113 -0.0074 0.0117 -0.0079 0.0127 -0.0083 0.0132 -0.0089 0.014 -0.0093 0.0148 -0.0097 0.0155 -0.0104 0.0158 -0.0105 0.0168 -0.011 0.0172 -0.0115 0.018 -0.0118 0.0185 -0.0123 0.019 -0.0124 0.0199 -0.0128 0.0201 -0.0135 0.0207 -0.0136 0.0211 -0.0142 0.0218 -0.014 0.0221 -0.0147 0.0228 -0.015 0.023 -0.0153 0.0235 -0.0155 0.0241 -0.0158 0.0242 -0.016 0.0247 -0.0163 0.0251 -0.0166 0.0254 -0.0167 0.0258 -0.017 0.026 -0.0172 0.0264 -0.0176 0.0266 -0.0176 0.0269 -0.0177 0.027 -0.0181 0.0274 -0.0182 0.0277 -0.0183 0.0277 -0.0184 0.0279 -0.0186 0.0281 -0.0188 0.028 -0.0187 0.0002 0 0.0284 -0.0191 0.0285 -0.0189 0.0286 -0.0193 0.0288 -0.0192 0.0285 -0.0194 0.0288 -0.0191 0.0288 -0.0197 0.0001 0 0.0287 -0.0191 0 0 0.0288 -0.0197 0.0288 -0.0193 0.0287 -0.0197 0.0001 0 0.0287 -0.0195 0.0287 -0.0194 0.0285 -0.0197 0 0 0.0283 -0.0193 0.0001 0 0.0203 -0.0163 0.0203 -0.0164 0.0204 -0.0164 0.0004 0 0.0206 -0.0165 0.021 -0.0165 0.0212 -0.0166 0.0212 -0.0167 0.0001 0 0.0215 -0.0167 0.0216 -0.0165 0.0217 -0.0168 0.0001 0 0.0219 -0.0168 0.0221 -0.0167 0.0221 -0.0168 0.0223 -0.0168 0.0225 -0.0169 0.0226 -0.017 0.0226 -0.017 0.0002 0 0.0226 -0.0168 0.0231 -0.0171 0.0229 -0.017 0.0228 -0.017 0.0232 -0.0171 0.0001 0 0.0231 -0.017 0.0233 -0.0173 0.0233 -0.0169 0.0233 -0.0172 0.0236 -0.0172 0.0233 -0.0172 0.0235 -0.0173 0.0239 -0.0171 0.0235 -0.0172 0.0234 -0.0172 0.0237 -0.0171 0.0234 -0.0175 0.0002 0 0.0234 -0.017 0.0236 -0.0172 0.0236 -0.0173 0.0236 -0.0172 0.0236 -0.0173 0.0233 -0.0174 0.0236 -0.0171 0.0233 -0.0174 0.0234 -0.017 0.0233 -0.0174 0.0001 0 0.0231 -0.0173 0.0234 -0.0172 0.0233 -0.0173 0.0228 -0.0172 0.0231 -0.0173 0.0228 -0.0172 0.0228 -0.0171 0.0228 -0.0171 0.0222 -0.0172 0.0226 -0.0173 0.0223 -0.017 0.0222 -0.0171 0.0221 -0.0172 0.0218 -0.017 0.022 -0.0171 0.0216 -0.0171 0.0215 -0.017 0.0212 -0.0169 0.0212 -0.017 0.0209 -0.0171 0.0022 -0.0013 0.0021 -0.0017 0.0016 -0.0018 0.0024 -0.0016 0.002 -0.0018 0.0021 -0.0016 0.0018 -0.0015 0.002 -0.0019 0.0024 -0.0015 0.0019 -0.0016 0.0019 -0.0019 0.0021 -0.0014 0.0022 -0.0018 0.0002 -0.0003 0.0017 -0.0014 0.0022 -0.0017 0.0021 -0.0017 0.0018 -0.0018 0.0023 -0.0015 0.0018 -0.0017 0.0021 -0.0017 0.0021 -0.0017 0.0019 -0.0017 0.0023 -0.0016 0.002 -0.0018 0.002 -0.0017 0.0021 -0.0017 0.0007 -0.0004 0.0013 -0.0013 0.002 -0.0017 0.0022 -0.0017 0.0019 -0.0016 0.002 -0.0018 0.0021 -0.0017 0.0022 -0.0017 0.002 -0.0018 0.002 -0.0017 0.002 -0.0017 0.0021 -0.0016 0.0022 -0.0018 0.0019 -0.0017 0.001 -0.0006 0.0011 -0.001 0.0021 -0.0018 0.0019 -0.0017 0.0021 -0.0017 0.0022 -0.0019 0.0019 -0.0016 0.0022 -0.0018 0.0019 -0.0016 0.0021 -0.0018 0.0022 -0.0017 0.0019 -0.0017 0.0021 -0.0017 0.0021 -0.0018 0.001 -0.0009 0.0009 -0.0008 0.0084 -0.0068 0.0021 -0.0019 0.0061 -0.0053 0.0021 -0.0017 0.0041 -0.0034c0.0123,-0.095 0.0252,-0.1898 0.0395,-0.2847 0.1234,-0.8199 0.3343,-1.6409 0.4285,-2.4706 0.1378,-0.8626 0.3307,-1.6975 0.542,-2.5299 0.1642,-0.6473 0.3398,-1.2933 0.5092,-1.949 0.2108,-0.5307 0.2129,-0.8234 0.4113,-1.4149 0.2264,-0.6657 0.3758,-1.0866 0.6605,-1.7935 0.4672,-1.1812 0.7355,-1.9993 0.9194,-2.3856 0.1648,-0.3413 0.332,-0.6763 0.4714,-1.0095 0.1793,-0.4285 0.3287,-0.855 0.5286,-1.2898 0.1183,-0.2572 0.2989,-0.5183 0.3961,-0.7844 0.2349,-0.6415 0.5565,-1.3099 0.9314,-1.9451 0.1705,-0.2887 0.389,-0.571 0.5508,-0.8404 0.1542,-0.2573 0.3382,-0.5103 0.5079,-0.7557 0.3262,-0.4713 0.8139,-0.9293 0.7787,-0.9643 0.5248,-0.4465 1.1905,-1.0065 1.7374,-0.9415 0.2631,-0.0155 0.3989,-0.021 0.5451,-0.0182 0.0769,0.0013 0.1559,0.0283 0.2581,0.0338l-0.0004 -0.0002 -0.0037 -0.0011 -0.0001 0 0.0001 0 0.0183 -0.0836zm-20.8253 29.6168l0 0 7.6198 -5.3766c0.0693,-0.046 0.1337,-0.0886 0.1928,-0.1274l0.0165 -0.0107 0.0689 -0.0449 0.0226 -0.0143 0.0659 -0.0421 0.0092 -0.0058c0.0248,-0.0157 0.0478,-0.03 0.0698,-0.0434l0.0036 -0.0024c0.02,-0.0123 0.0388,-0.0235 0.0561,-0.0336l0.0098 -0.0058 0.0358 -0.0208 0.0147 -0.0078 0.0256 -0.0137 0.01 -0.0048c0.0071,-0.0034 0.0129,-0.0059 0.0183,-0.008l0.0068 -0.0028c0.0067,-0.0025 0.0117,-0.0034 0.0147,-0.003l0.0444 -0.0147 0.0052 -0.0018 0.0079 -0.0026 0.035 -0.0126 0.0153 -0.0058 0.0385 -0.0147 0.0058 -0.0022 0.0084 -0.0034 0.0314 -0.0128 0.015 -0.0063 0.0309 -0.0133 0.0205 -0.0088 0.0044 -0.0022 0.0436 -0.0197 0.0188 -0.0091 0.0067 -0.0029 0.0317 -0.0153 0.0165 -0.008 0.0347 -0.0174 0.0088 -0.0042 0.0045 -0.0023 0.0326 -0.0167 0.0193 -0.0101 0.0037 -0.0019 0.0524 -0.0281 0.0037 -0.0019 0.0535 -0.0295 0.0019 -0.001 0.032 -0.018 0.0264 -0.0151 0.0075 -0.0043 0.0341 -0.0197 0.006 -0.0036 0.0253 -0.0149 0.003 -0.0017 0.0346 -0.0208 0.0086 -0.0051 0.0012 -0.0006 0.059 -0.0362 0.0006 -0.0004 0.035 -0.0217 0.0088 -0.0053 0.0265 -0.0169 0.0352 -0.0225 0.0328 -0.021 0.0028 -0.0016 0.0358 -0.0232 0.031 -0.0205 0.0046 -0.003 0.0328 -0.0214 0.0031 -0.0024 0.036 -0.024 0.0364 -0.0244 0.0362 -0.0246 0.0133 -0.0094 0.023 -0.0155 0.0367 -0.0254 0.0278 -0.0192 0.0086 -0.0062 0.0308 -0.0213 0.0058 -0.0044 0.0367 -0.026 0.0212 -0.015 0.0158 -0.0112 0.0369 -0.0264 0.0371 -0.0266 0.0369 -0.0269 0.0014 -0.0009 0.0357 -0.0261 0.0284 -0.0209 0.0088 -0.0065 0.0372 -0.0274 0.0372 -0.0275 0.0371 -0.0277 0.0376 -0.028 0.0359 -0.027 0.0015 -0.0012 0.0372 -0.0282 0.0373 -0.0283 0.0372 -0.0284 0.0375 -0.0287 0.0371 -0.0286 0.0061 -0.0046 0.0312 -0.0242 0.0332 -0.0256 0.0041 -0.0032 0.0373 -0.029 0.0229 -0.018 0.0141 -0.0109 0.1113 -0.0871c-0.0364,0.3898 -0.073,0.7805 -0.1272,1.1728 0.0429,0.5881 -0.1143,1.1504 -0.0862,1.6479l-0.1102 2.1959c-0.0993,1.3246 -0.156,2.5216 -0.1061,3.8477 0.0259,0.6953 0.0044,1.3091 0.0289,1.8369l0.1199 1.2288 0.1352 1.4062 0.2108 1.498c0.0147,0.4444 0.1489,0.9355 0.2739,1.4379 0.2382,0.9597 0.52,1.962 0.7858,2.764 0.3432,1.0361 0.8291,2.0634 1.2678,2.9005 0.273,0.4782 0.7421,0.8346 1.0191,1.1925 0.5506,-0.1998 1.1525,-0.5432 1.7498,-0.7613 0.4794,-0.175 0.9563,-0.2332 1.4016,-0.3482 0.1849,-0.0478 0.1976,0.0479 0.3836,0.0069 0.5822,-0.1283 1.7594,-0.4331 1.7998,0.1658 0.0255,0.3772 0.6352,0.447 0.103,0.8882l-0.4425 0.367 -0.7025 0.6601 -0.6847 0.7203c-0.3179,0.3617 -0.5022,0.6792 -0.7575,1.0278 -0.5822,0.7956 -1.0442,1.6075 -1.4803,2.4986 -0.2648,0.541 -0.6226,1.0818 -0.8703,1.6258 -0.2476,0.544 -0.3853,1.0915 -0.6227,1.6454 -0.2015,0.4703 -0.398,0.9489 -0.5608,1.4319 -0.3065,0.9094 -0.5055,1.2772 -0.9009,2.6595 -0.4848,1.4882 -0.8494,3.0773 -1.0577,4.4815 -0.1146,0.4305 -0.2797,1.2242 -0.4959,2.9587 0.164,-0.0404 3.8835,-2.1949 4.4178,-2.5175 0.6764,-0.4083 1.5245,-0.8999 2.3639,-1.3155 0.6327,-0.3132 1.2601,-0.5531 1.8057,-0.8506l0.2101 -2.6861 -0.0561 -0.6609 0.9003 -7.5273 -0.6036 9.9036 -0.0154 0.3294c0.0035,0.2831 -0.0566,0.2257 -0.0747,0.4827 0.0984,-0.0094 0.782,-0.334 1.4987,-0.6062 0.6367,-0.2417 1.3032,-0.4527 1.9855,-0.6256 1.6164,-0.4098 3.3208,-0.6076 4.9209,-0.5041 0.5291,0.0344 1.2018,0.0486 1.7595,0.1287 0.8151,0.1171 1.5192,0.3247 2.2679,0.51 0.878,0.2171 1.7426,0.5596 2.6558,0.909 0.6316,0.2418 1.2704,0.6262 1.9421,0.8806 0.5525,0.2092 1.2491,1.0421 1.7101,1.0466 2.0894,1.2205 4.0321,2.5073 5.7009,4.138 1.9694,1.9244 3.5825,4.0862 4.8229,6.5392 0.5137,1.0163 0.9191,2.1073 1.3237,3.1709 0.7033,1.8492 1.1724,4.0994 1.3384,6.053 0.0813,0.9512 0.1374,1.9087 0.16,2.8657 0.0201,0.8443 -0.0513,1.6895 -0.0867,2.5315 -0.0372,0.8726 -0.1627,1.7642 -0.2641,2.6493 -0.1018,0.885 -0.3126,1.7639 -0.5203,2.6104 -0.1685,0.6877 -0.425,1.3694 -0.6168,2.0439 -0.2166,0.7638 -0.6718,1.536 -0.9472,2.3033 -0.0653,0.1821 -1.2183,2.045 -1.1459,2.0925l2.6532 1.7336c0.6371,0.3975 1.3866,1.0133 2.1982,1.6013 0.7829,0.5672 1.5539,1.1776 2.3046,1.852 0.5839,0.5243 1.1561,1.1061 1.7124,1.6176 0.7082,0.6515 1.011,1.1903 1.643,1.9108 0.7161,0.8165 1.2339,1.7302 1.7075,2.5582 0.6707,1.1732 1.5083,2.9481 1.9156,4.7643 0.5712,2.5454 0.7352,4.018 0.6984,5.8021 -0.0352,1.7253 -0.2873,3.4159 -0.7156,5.0838 -0.4165,1.6206 -1.0295,3.2489 -1.729,4.7572 -0.2262,-0.0498 -0.3359,-0.1599 -0.4948,-0.1578 -0.1635,0.0021 -1.5301,2.4339 -2.0191,2.5711 -0.004,0.4247 -0.0953,0.4615 -0.4862,0.4991l-0.0021 -0.1643c-0.472,0.1166 -0.901,0.9457 -1.2139,1.3297 -0.3295,0.4043 -1.1975,0.7659 -1.2991,1.166 -0.7287,0.0257 -0.6527,0.693 -1.3037,0.7559 0.035,-0.5007 0.649,-0.6015 0.643,-1.0758l-0.0056 -0.4104 -0.7818 0.4022 -0.7114 0.5683 -0.5452 -0.0585 -0.9979 0.4854c-0.1042,-0.1389 -0.2325,-0.2327 -0.2363,-0.5341l-0.0065 -0.4925c-0.483,0.0464 -0.1691,0.1664 -0.4904,0.1706 -0.1316,0.0016 -0.2013,-0.2452 -0.3315,-0.2421l-1.5589 0.0582 -0.2349 0.1411 -0.3358 -0.2649 -0.9089 1.1616 0.0087 -0.4819 -0.6526 0.1784 -0.0041 -0.1699 0.8908 -0.357 0.0037 -0.3115 -0.5226 -0.3757 -1.039 0.1023 -0.3956 -0.1767c-0.1043,-0.2412 -0.4408,-0.6632 -0.6866,-0.8293l-0.2341 0.1791 -0.4207 -0.0066 -0.234 0.1793c0.0933,-0.4821 0.063,-0.7858 -0.5132,-0.8262l-0.0042 -0.3283 -0.7524 -0.2008c-0.5245,0.2427 -1.5965,0.1216 -2.4781,0.0957 -0.6857,-0.02 -1.2563,0.0176 -1.3644,0.3288l-0.5005 -0.2298 -0.2292 0.1689 -1.0774 0.002 -0.9458 0.7852 0.2478 -0.4166 -0.2825 -0.0273c-0.5741,0.0074 -2.1322,0.9081 -2.5299,1.1819 -0.2179,-0.1045 0.0664,-0.0829 -0.2473,-0.0789 -0.1738,0.0022 -0.108,0.0308 -0.3275,0.0865l1.1818 -1.1972c-1.1184,0.2514 -0.6958,0.5669 -2.1753,0.5532l-0.0022 -0.1642 0.3284 -0.0043c0.3546,-0.0046 1.3292,-0.4918 1.6603,-0.6515 0.5765,-0.2782 0.2644,-0.0441 0.6352,-0.5159 0.2789,-0.3555 0.4425,-0.1834 0.5564,-0.5116 -0.135,0.0333 -1.9188,0.8224 -2.0577,0.9127 -0.4974,0.3235 -1.4227,0.6045 -2.0089,0.8795 -0.5482,0.2573 -1.8044,0.535 -2.2071,0.7674 -0.443,0.2547 -1.6189,0.5805 -2.3062,0.5893l-0.0024 -0.1643 0.575 -0.0074c0.5678,-0.0073 2.6208,-1.1069 3.1563,-1.3821 0.5253,-0.27 2.7619,-1.2357 2.7969,-1.7326l0.0963 0.1589c0.3536,-0.0986 1.4934,-0.8541 1.9429,-1.0896 0.7921,-0.4152 1.1626,-0.7772 1.7933,-1.1702 0.7977,-0.4969 2.4262,-2.0933 2.8908,-3.0038 0.3518,-0.6894 0.8911,-1.4095 1.2253,-2.1507 0.2879,-0.6389 0.5291,-1.263 0.7822,-1.8887 0.2692,-0.6662 0.4297,-1.3344 0.5789,-2.0233 0.1523,-0.702 0.3241,-1.3982 0.3738,-2.0955 0.0498,-0.6973 -0.0226,-1.396 0.0135,-2.1024 0.0197,-0.3869 -0.0315,-0.7764 -0.0464,-1.1328 -0.0266,-0.6343 -0.1135,-1.2712 -0.2071,-1.8677 -0.1865,-1.1909 -0.559,-2.3707 -0.5291,-2.435 -0.2393,-0.4384 -0.4861,-1.3076 -0.6348,-1.8834 -0.1422,-0.5511 -0.7913,-1.3257 -0.7139,-1.7161 -0.2653,-0.092 -0.7875,-1.1532 -0.972,-1.4029 -0.3971,-0.5384 -0.7193,-0.7617 -1.1286,-1.2185 -0.6676,-0.745 -2.2693,-1.0889 -2.4738,-1.9169l-0.3282 0.0043c-0.2669,0.0034 -0.0611,0.0719 -0.4084,0.1694l-0.0031 -0.2461 -0.3283 0.0042c-0.0512,-0.1824 -0.0225,-0.2461 -0.2497,-0.243l-0.4105 0.0052 -0.0019 -0.1642 -0.5746 0.0075 0.0956 -0.5726 -0.5849 -0.1284 -0.1444 -0.216 0.0532 -0.3039 -0.658 -0.1953 -0.1112 -0.2024 -0.7236 0.0034 0.2958 -0.374 -0.0829 -0.0128 -0.4818 -0.5028 0.184 -0.249 -0.5848 -0.1052c-0.0375,-0.3377 -1.3397,-1.7679 -1.6683,-1.7638l-0.1641 0.0022c-0.4197,0.0056 -0.3583,0.1863 -1.1474,0.179 -0.3385,-1.3737 0.9035,-3.6037 1.833,-4.2929 0.7065,-0.5238 1.8882,-3.031 2.3664,-4.0164 0.7281,-1.5006 1.3477,-2.871 1.8422,-4.6078 0.2423,-0.8511 0.5021,-1.6178 0.5746,-2.6012 0.0331,-0.4465 0.1966,-0.9413 0.2244,-1.4024 0.0204,-0.3373 0.0694,-0.5102 0.0763,-0.7423 0.0157,-0.5191 -0.2379,-0.3821 0.0733,-0.4898l0.1067 -1.9665 0.0085 -1.8116 -0.0652 -1.377 -0.169 -1.5062c-0.0967,-0.5457 -0.1228,-1.1173 -0.2046,-1.7008 -0.0637,-0.4537 -0.1796,-0.9146 -0.2707,-1.3754 -0.1423,-0.7205 -0.3748,-1.4415 -0.5738,-2.1357 -0.2068,-0.7216 -0.4912,-1.4147 -0.771,-2.0492 -0.2541,-0.5757 -0.5416,-1.0543 -0.6871,-1.2659 -0.8748,-1.2712 -1.6264,-2.1492 -2.8699,-3.0494 -0.572,-0.2174 -0.9892,-0.4974 -1.3491,-0.6531 -0.4631,-0.1999 -0.8318,-0.2555 -1.315,-0.35 -0.515,-0.1009 -1.1605,-0.0812 -2.1891,-0.1651 -1.3928,0.0108 -4.1953,0.4209 -5.067,0.8533 0.0106,0.8199 -0.3344,2.3759 -0.5144,3.1101 -0.1932,0.789 -0.416,2.0277 -0.54,2.7968 -0.3226,2.0016 -0.3959,3.4902 -0.749,5.5923 -0.1614,0.961 -0.2349,2.119 -0.3161,2.8524 -0.1164,1.0522 -0.1883,1.8944 -0.3013,3.0304 -0.1702,1.716 -0.6779,4.3567 -0.6553,6.1107 2.5005,-0.6164 6.8063,-4.208 8.4829,-5.8591 0.4396,-0.4332 1.4602,-1.3332 1.9292,-1.6864 0.675,-0.508 1.2146,-1.1145 1.8828,-1.6505 0.4117,-0.3295 1.281,-1.3368 1.731,-1.7987 0.5977,-0.6132 1.2099,-1.1686 1.7379,-1.7918l-0.0881 0.491 1.1454 -0.84c0.1934,0.3995 -0.9143,1.6035 -1.1454,2.0461 -0.1666,0.3187 -0.4561,0.7994 -0.6766,1.0431 -0.3372,0.3724 -0.3272,0.8401 -0.7484,0.8917l0.0903 0.4088 -0.0895 -0.0582 -0.3968 0.584 0.0805 0.0549c-0.1828,0.0512 -1.32,1.9403 -1.5314,2.2361 -0.2716,0.3799 -0.6173,0.6501 -0.877,1.0097 -0.2187,0.3025 -0.326,0.933 -0.5705,1.3083 0.0067,0.5206 -0.1417,1.5926 -0.47,1.7303l0.0051 0.4102c0.0028,0.2218 -0.0363,0.227 -0.0767,0.4117l0.2415 0.0944 0.0089 0.2308 -0.0137 0.6569c-0.1775,0.075 -0.2228,0.0972 -0.2186,0.4132l0.0028 0.2464 0.3244 -0.0964 0.0053 0.1742c-0.3704,0.0915 -0.4503,0.3055 -0.6694,0.5636 -0.2298,0.2705 -0.5776,0.3288 -0.696,0.4567 -0.2689,0.2906 0.1427,0.2713 -0.4653,0.681 -0.2467,0.1663 -0.2754,0.4997 -0.2707,0.871 0.0016,0.1113 0.0892,0.0446 0.1684,0.3263 -0.3544,0.0875 -0.644,0.2183 -0.648,0.6652 -0.2068,0.0252 -0.824,0.6052 -1.0573,0.7531 -0.2155,0.1364 -0.3839,0.1388 -0.6091,0.298 -0.3864,0.2731 -0.0282,0.2535 -0.45,0.372 0.1177,0.4184 0.8661,-0.042 1.3006,-0.1917 0.3812,-0.131 1.0287,-0.4643 1.3997,-0.5 -0.4143,0.3697 -2.5087,0.8622 -2.6109,1.2653l0.0369 0.0883 1.7742 -0.736c-0.1098,0.2446 -0.6828,0.7007 -1.0272,0.844 -0.5058,0.2104 -0.8127,0.2931 -1.2932,0.5228 -0.524,0.2507 -2.3931,0.6864 -2.5044,1.126l0.6683 0.1087 -0.9939 -0.0382c-0.0216,0.014 -1.0647,0.3581 -1.4751,0.3634l-0.4104 0.0053 -0.9785 6.7454 0.0763 -0.0791c0.3084,0.3047 0.4963,0.4319 0.6136,0.4695 0.1065,-0.0939 0.2309,-0.1792 0.2667,-0.1434 0.1154,0.1698 0.162,2.9361 0.0651,3.0375 -0.4843,0.3344 -0.2876,0.57 -0.3181,1.303l-0.1618 0.2391c0.0209,0.6953 0.1614,1.4038 -0.5447,1.4128 -0.5726,0.0075 -0.1343,-1.0024 -0.5277,-1.2396 -0.8898,-0.1677 -0.5447,3.05 -0.5638,3.1749 -0.1474,0.9549 -0.2346,1.8142 -0.3333,2.7552 -0.1883,1.7941 -0.5087,3.6854 -0.7801,5.4679 -0.5524,3.6282 -0.7594,7.5002 -1.1244,11.2372 -0.1157,1.1837 -0.3641,2.3778 -0.488,3.5675 -0.0904,0.8681 -0.033,1.7371 -0.1319,2.5924 -0.0847,0.7323 -0.19,1.9468 -0.2118,2.1826 -0.0508,0.1972 -0.1849,0.5476 -0.2226,0.9463 -0.0629,0.6645 -0.0242,1.4641 -0.1008,1.9155 -0.4767,2.8096 -0.4989,6.1415 -0.8066,8.8887 -0.1564,1.3975 -0.1877,2.4152 -0.3068,2.505 -0.0197,-1.5029 0.1476,-3.5884 0.3886,-5.0614 0.1044,-0.6378 0.0805,-1.6483 0.1637,-2.6417 0.0736,-0.8766 0.2619,-1.7399 0.2551,-2.3223 -0.0135,-1.1857 0.2204,-3.8025 0.4027,-4.9798 0.2483,-1.6013 0.1609,-1.854 0.416,-4.9443 0.2416,-1.2306 0.376,-3.5856 0.5184,-4.9576 0.1746,-1.6831 0.3825,-3.3589 0.5119,-5.0093 0.0582,-0.7412 0.2941,-2.9259 0.491,-5.0148 0.1357,-1.4358 0.2689,-2.8263 0.3402,-3.6711 0.0326,-0.384 -0.0216,-0.6554 0.0357,-0.7668l-0.1044 -0.3223 -0.2211 0.0956c0.0067,0.9803 -0.3152,2.3081 -0.3734,3.3554 -0.0659,1.1856 -0.2034,2.3222 -0.3498,3.3874 -0.1644,1.1948 -0.4708,6.1077 -0.8336,6.6447l1.5585 -15.9435c-0.1002,-0.7373 0.1558,-0.9918 -0.5463,-0.9828 -0.0806,-0.8394 -0.1444,-0.7077 0.0267,-1.7571 0.0973,-0.5967 0.0984,-1.2828 0.0899,-1.9389l-0.0821 0.0012 -0.1477 1.4899 -0.1024 -0.012c-0.027,0.2229 -0.361,2.9316 -0.3517,2.9329 0.1931,0.0696 0.376,0.2672 0.4104,0.5211 0.0945,0.7023 -0.3708,1.8373 -0.4846,1.8962 -0.514,-1.1309 -1.4103,0.8811 -0.3213,0.7315 0.8212,-0.3283 -0.1253,1.0783 -0.1558,1.3284l-0.0303 -0.4796c-0.4943,-0.0579 -0.3281,-0.5806 -0.1883,-0.9712 0.5978,0.5961 1.1875,-0.93 0.1879,-0.9171 -0.0013,0.0004 0.0345,-0.255 0.0749,-0.5501 -0.019,-0.0278 -0.0366,-0.0543 -0.0527,-0.0799 -0.91,0.3615 -0.6318,-0.415 -0.8081,-0.6208 0.3969,-0.6127 0.1794,-0.7824 -0.1643,-0.8031 -0.0646,-0.5972 -0.6263,0.1548 -0.927,0.0889l-0.1098 -0.7348c-0.0151,-0.2077 0.2622,-0.4559 0.4222,-0.5007l0.0053 0.4104 0.0822 -0.0011 0.0645 -0.5773c-0.2491,-0.0634 -0.3722,-1.2326 -0.6735,-0.6813 -0.4699,0.8583 -0.0777,-0.4403 -0.809,-0.4472 -0.3877,-0.6865 0.1512,-1.4739 -0.0576,-2.2061 -0.1229,-0.2875 -0.832,0.9157 -1.2266,0.8203 -0.0184,-0.6152 0.4221,-2.8046 0.1764,-2.9027 0.0967,-0.4726 0.4964,-0.5906 0.8779,-0.7987l0.0395 0.3278 0.459 0.0723c0.0153,-0.0837 0.3017,-0.0181 0.2467,0.0827 0.3036,0.1977 0.5058,0.266 0.4187,0.6515l0.6604 0.5698c0.1579,-0.3903 -0.1617,-0.1083 -0.1667,-0.494 -0.0036,-0.2851 0.1626,-0.1275 0.1589,-0.4126l-0.0032 -0.2463c-0.0007,-0.0529 0.2245,-1.5834 0.3179,-0.8252l0.1639 -0.0021 -0.0053 -0.4104c-0.0051,-0.4 0.7842,-0.3167 0.9078,-0.1827 0.1589,0.1722 0.6851,0.5089 0.9046,0.6517 0.124,-0.8793 0.2474,-1.7553 0.3713,-2.6327 -0.0869,0.1359 -0.2072,-0.0509 0.0748,-0.1862l0.1867 -1.6296 -0.193 -0.088 0.0862 -0.1827 -0.1475 -0.0764 0.3667 -0.681 0.097 0.0437 -0.2101 -0.558 0.1934 -0.0131 -0.0174 -0.4926 -0.4815 -0.0704c-0.9177,0.0118 -1.907,-0.2914 -2.8982,-0.5692 -1.4484,-0.4061 -2.9018,-0.901 -4.1428,-1.4512 -0.4603,0.1353 -1.2781,-0.6474 -1.8851,-0.9599 -0.3998,-0.206 -0.7997,-0.421 -1.1823,-0.6485 -0.4334,-0.2579 -0.8448,-0.5319 -1.2082,-0.8272 -0.3759,-0.3054 -1.4066,-1.1134 -1.7779,-1.4246 -0.794,-0.6656 -1.6137,-1.6574 -2.3068,-2.476 -0.7853,-0.9279 -1.4264,-1.9709 -1.988,-3 -0.4525,0.247 -0.8578,1.1496 -1.3127,1.6391 -0.2657,0.286 -1.07,1.5175 -1.3549,1.5975l-0.0717 0.4943c-0.3305,0.0392 -0.8489,1.0443 -1.0262,1.3536 -0.2853,0.4976 -0.6059,0.9306 -0.9145,1.3785 -0.3113,0.4518 -0.5648,0.9071 -0.9004,1.3921 -0.2314,0.3349 -0.5142,1.1205 -0.7664,1.5225 -0.2823,0.4499 -0.5733,1.1886 -0.8312,1.5405 -0.2354,0.3209 -0.7019,1.0548 -0.888,1.4041 -0.2104,0.3951 -1.6705,2.5734 -1.9207,2.6675 0.2383,-0.9405 2.404,-4.5672 2.3991,-4.9571l-0.0033 -0.2463c0.3426,-0.129 1.2991,-2.5041 1.602,-2.9777 0.5861,-0.9166 1.0859,-1.9558 1.6702,-2.9117 0.5114,-0.8371 1.2052,-2.0566 1.7654,-2.8183 0.3656,-0.4963 1.561,-2.2579 1.7931,-2.7108 -0.6192,-1.2487 -1.3032,-4.4715 -1.3982,-6.3005 -0.0201,-0.6576 -0.1244,-1.3284 -0.0066,-1.9644 0.1049,-0.5668 0.0351,-1.1531 0.0653,-1.7328 0.0514,-0.9855 0.4412,-2.3218 0.4298,-3.2088l0.1152 -0.2386c-0.0114,-0.4812 0.2813,-1.5645 0.6507,-2.7055 0.475,-1.4669 1.077,-3.0295 1.3226,-3.5311 0.7294,-1.4896 2.0866,-3.935 3.078,-5.106 0.6229,-0.7355 1.1746,-1.5845 1.817,-2.2823 0.2544,-0.2766 0.4737,-0.7154 0.8729,-1.1421 0.3634,-0.3886 0.9117,-0.7675 1.0825,-1.005 0.1298,-0.1806 0.2434,-0.426 0.5134,-0.7069 0.3472,-0.3611 0.8861,-0.7814 1.3387,-1.1989 0.2462,-0.227 0.3947,-0.4538 0.6396,-0.6694 0.716,-0.6306 1.536,-1.1702 1.6937,-1.3706 -0.0874,-0.0339 -2.8888,-2.3215 -3.1062,-2.5739 -0.4498,-0.5214 -0.901,-1.0261 -1.3682,-1.5654 -0.4583,-0.5295 -0.6998,-1.0205 -1.121,-1.5946 -0.8622,-1.544 -0.9086,-2.0364 -1.5292,-3.6737 -0.1768,-0.7045 -0.6964,-3.8571 -0.7402,-4.9404l-0.0726 -2.3264 0.1265 -2.2265zm8.1252 -5.7012l0 0 -0.0561 0.0336c0.0203,-0.0123 0.0387,-0.0234 0.0561,-0.0336zm-3.5904 2.4657l0 0 -4.5348 3.2355 0.0885 -0.0637 0.0145 -0.0106 0.1084 -0.0782 0.0087 -0.0059 0.1049 -0.0756 0.034 -0.0247 0.0845 -0.0607 0.0616 -0.0444 0.0614 -0.0443 0.0915 -0.0656 0.036 -0.0262 0.1233 -0.0883 0.0088 -0.0064 0.1362 -0.0977 0.0203 -0.0146 0.171 -0.1226 0.0919 -0.0658 0.0841 -0.0603 0.0626 -0.0449 0.1183 -0.0847 0.0317 -0.0227 0.3085 -0.2206 0.0345 -0.0247 0.1932 -0.1378 0.0911 -0.0651 0.105 -0.0751 0.0575 -0.041 0.1415 -0.1008 0.023 -0.0164 0.1659 -0.1182 0.0127 -0.0091 0.1547 -0.1103 0.049 -0.0346 0.6195 -0.4402 0.0111 -0.0082 0.1968 -0.1392 0.1457 -0.1036 0.0621 -0.0438 0.4147 -0.2935 0.0356 -0.0252 0.1699 -0.1198 0.0006 -0.0004zm5.9652 40.6698c0.001,1.0145 -0.1843,1.5046 -0.163,2.5111 0.0126,0.6031 -0.0752,1.5191 -0.0634,2.127l0.1555 2.7495 0.1399 2.682 0.2943 2.2265 0.5451 2.4567 0.7321 2.3832 0.0208 0.2538 0.3782 1.0551 0.3206 0.6117 0.3375 0.5904 0.4225 0.2897 1.8221 -0.6167 -0.0042 -0.4316 0.2463 -0.0032 -0.0022 -0.1643 -0.2513 0.0029 0.074 -1.4631 0.2392 -0.1003 -0.0021 -0.1643 -0.1541 0.0069 0.2301 -0.5005 -0.1865 -0.0075 0.1809 -0.4028 -0.1642 0.002 -0.0054 -0.4103c0.087,-0.0348 0.2474,-0.3241 0.2283,-0.4128l-0.081 -0.9029 0.244 -0.0031 0.0199 -1.3975 -0.0451 -0.7369 0.1038 -0.0037 0.1189 -1.5502 0.22 -2.2376 0.0829 0.0082c-0.1311,-0.2651 0.6113,-5.5962 0.7825,-6.5321 0.1984,-1.0839 0.4026,-2.1933 0.7256,-3.1027 0.1115,-0.3146 0.3288,-1.2426 0.3962,-1.5592 0.1398,-0.6564 0.108,-1.119 0.2307,-1.6779 -0.3554,0.0046 -0.8537,0.1781 -1.3896,0.4652 -0.3791,0.203 -0.8631,0.4698 -1.2549,0.6677 -0.7479,0.3775 -1.4078,0.6896 -2.0973,1.1265 -0.2486,0.1576 -0.5257,0.2838 -0.725,0.4763 -0.2595,0.2502 -0.2486,0.1198 -0.5074,0.3161 -0.5314,0.4025 -1.6468,1.0733 -2.1952,1.3727z"/>
   <path id="_101738640" class="fil0" d="M128.742 29.709c0.0802,0.0238 0.1555,0.041 0.214,0.0595 0.0776,0.0246 0.1393,0.0465 0.1943,0.0693 0.0932,0.0382 0.1661,0.0797 0.2624,0.143l0.4593 0.3899 0.1898 0.2884c0.014,0.0152 0.0832,0.1337 0.1449,0.2689 0.0614,0.1348 0.0781,0.2782 0.1384,0.3748 0.0668,0.1408 0.0916,0.2413 0.1215,0.3596 0.0385,0.1523 0.0738,0.3326 0.0879,0.6399 0.0576,0.1248 0.0659,0.334 0.066,0.4454 0.0009,0.194 0.0005,0.3414 -0.0001,0.4673 -0.0047,0.6642 -0.1662,1.1417 -0.3199,1.7924 -0.201,0.6439 -0.4511,0.9379 -0.6884,1.6712 -0.6321,0.9899 -0.9401,1.8488 -1.3732,2.5135 -0.2754,0.4227 -0.4655,0.8 -0.6616,1.1274 -0.4312,0.7208 -0.747,1.2311 -1.04,1.6699 -0.3672,0.5498 -1.4943,1.9626 -1.8641,2.5149 -0.4676,0.6728 -1.0343,1.376 -1.6407,2.0879 -0.9461,1.1102 -1.9889,2.2086 -2.9039,2.9901 -0.5424,0.463 -1.1566,1.1162 -1.7297,1.5801 -0.4453,0.3609 -1.0142,0.7413 -1.4434,1.0896 -0.6055,0.4145 -1.2926,0.8557 -1.338,0.8938 -0.2707,0.2322 -10.5991,8.0785 -10.8514,8.0516l2.4144 -1.402c0.0768,-0.0837 8.8132,-6.3491 9.0155,-6.3211 1.0525,-0.3307 2.7751,-1.8915 3.7923,-2.6615 0.7427,-0.5623 1.3458,-1.285 2.0688,-1.8372 -0.0377,-0.1215 1.9526,-2.164 1.8961,-2.1006 1.1257,-1.5877 2.1504,-2.7544 2.9423,-4.0443 0.8331,-1.3571 1.4784,-2.6035 2.1408,-3.7226 0.1157,-0.2147 0.5498,-1.0939 0.9375,-1.9777 0.468,-1.0667 0.8964,-2.1352 0.7093,-2.0315 -0.0741,0.0022 0.2428,-0.8432 0.223,-0.951 0.0008,0.0165 0.0659,-0.2616 0.0396,-0.4857 -0.0791,-0.3014 -0.0439,0.5777 -0.185,-0.2847 -0.0111,-0.2631 -0.0188,-0.8077 -0.061,-0.9686 -0.0807,-0.3076 -0.1061,-0.6037 -0.1342,-0.7872 -0.0992,-0.2724 -0.2028,-0.5831 -0.3517,-0.9179 -0.0916,-0.2057 -0.2122,-0.3518 -0.2867,-0.449 -0.0293,-0.0381 -0.0523,-0.0655 -0.0653,-0.0794l-0.3657 -0.2175 -0.4423 -0.2656c-0.0712,-0.0216 -0.2656,-0.0589 -0.2933,-0.0674l-0.0185 0.0841z"/>
   <path id="_106496440" class="fil0" d="M174.362 106.417c0.0413,0.2655 0.0996,0.5551 0.1875,0.8346 0.1394,0.4445 0.3868,0.9692 0.5827,1.3953 0.3713,0.8081 0.8401,1.3685 1.4149,1.9562 0.5873,0.6007 1.0683,0.9875 1.7768,1.3908 0.1144,0.0649 0.4137,0.2266 0.768,0.3588 0.2752,0.1026 0.5827,0.1711 0.871,0.2666 0.5131,0.1697 0.9483,0.2823 1.0032,0.3344l1.1172 0.1231 1.0136 0.0579 0.8091 -0.0955 0.8081 -0.1865 0.5931 -0.2642c0.314,-0.1236 0.4791,-0.373 0.5628,-0.712 0.0685,-0.2787 0.1525,-0.494 0.0629,-0.7968 -0.0633,-0.2129 -0.0895,-0.2378 -0.2246,-0.3021 -0.0706,-0.0339 -0.1771,-0.0623 -0.352,-0.1561 -0.1412,-0.0758 -0.271,-0.1408 -0.4091,-0.2431 -0.1145,-0.0848 -0.2353,-0.1955 -0.3733,-0.3594 -0.0219,-0.0433 -0.0877,-0.1131 -0.1694,-0.2003 -0.0927,-0.0991 -0.1625,-0.2244 -0.2573,-0.3547 -0.2979,-0.4085 -0.5611,-0.8479 -0.5832,-0.9439l0.8193 -0.3293 0.3764 -0.1741 0.3242 -0.2203 0.2741 -0.222 0.2599 -0.3026 0.245 -0.4064c0.136,-0.2791 0.2763,-0.6066 0.3531,-0.9442 0.0987,-0.4341 0.1115,-0.8867 0.0672,-1.2913 -0.0262,-0.2368 -0.0591,-0.479 -0.1279,-0.7113 -0.1145,-0.3873 -0.396,-0.7451 -0.5406,-1.0526 -0.1899,-0.4042 -0.5808,-0.7066 -0.9033,-0.9518 -0.7795,-0.5934 -1.8891,-0.895 -2.9912,-1.0412 -0.7806,-0.1034 -1.5987,-0.1378 -2.2512,-0.0501 -0.9752,0.131 -1.953,0.4159 -2.4236,0.5977 -0.233,0.0902 -0.5742,0.3107 -0.9412,0.5295 -0.7004,0.4175 -1.3238,1.237 -1.6035,2.1262 -0.2253,0.7161 -0.2543,1.5992 -0.1387,2.3407zm8.4374 -0.1379l0 0c-0.0009,-0.1561 -0.0223,-0.2781 -0.0193,-0.4378 0.0011,-0.0597 0.0035,-0.1198 0.0074,-0.1795 0.0274,-0.4181 0.1315,-0.8248 0.4462,-1.1423 0.103,-0.0709 0.1775,-0.1202 0.2579,-0.1547 0.0626,-0.0264 0.1295,-0.0371 0.2118,-0.088l0.2422 -0.0666 0.2486 -0.0115 0.1737 0.044 0.1932 0.0684 0.1766 0.0958 0.1081 0.0898 0.0287 0.043 0.0515 0.0917 0.0845 0.2917 0.0274 0.3501c0.009,0.035 -0.006,0.28 -0.0593,0.554 -0.0322,0.1644 -0.0897,0.3402 -0.1314,0.4841 -0.0341,0.0838 -0.0693,0.1967 -0.1095,0.3151 -0.0489,0.1432 -0.124,0.2963 -0.1979,0.4157 -0.0884,0.143 -0.2388,0.3299 -0.4045,0.4635 -0.1568,0.1265 -0.1582,0.1251 -0.3143,0.252 -0.1927,0.1561 -0.4288,0.2312 -0.5173,0.284 -0.2298,-0.4321 -0.4155,-1.0513 -0.4613,-1.2911 -0.0767,-0.4045 -0.0297,-0.3169 -0.043,-0.4714z"/>
   <path id="_42896968" class="fil0" d="M171.486 111.697c0.3078,0.4722 0.5785,0.9807 1.0066,1.3707 0.0988,0.0902 0.206,0.1109 0.3242,0.1951l0.3367 -0.016c0.0398,-0.0645 0.1203,-0.058 0.1951,-0.1162 0.0621,-0.048 0.1207,-0.1613 0.1489,-0.2087 0.0933,-0.1561 0.0572,-0.3516 0.0802,-0.641 0.0123,-0.1517 0.0228,-0.3595 0.0394,-0.4602l0.1314 -0.6074 0.1514 -1.1191 -0.004 -1.1781c-0.0217,-0.7035 -0.0892,-1.5147 -0.2364,-2.2789 -0.0774,-0.4004 -0.1767,-0.7877 -0.3027,-1.1404 -0.1567,-0.4384 -0.4874,-1.2151 -0.7733,-1.5878 -0.2858,-0.373 -0.7077,-0.973 -0.9893,-1.2236 -0.3674,-0.3269 -0.9439,-0.7351 -1.4038,-0.8985 -0.3854,-0.1372 -0.8983,0.1526 -0.9624,0.5495 -0.0894,0.554 0.1077,0.8062 0.4595,1.1849 0.2828,0.4677 0.2717,0.6337 0.3985,0.8225 0.0945,0.1412 0.123,0.382 0.2069,0.7067 0.0245,0.1205 0.0317,0.5315 0.0231,0.8025 -0.0206,0.6522 -0.0401,1.3769 0.0572,2.0216 0.0385,0.2565 0.0431,0.5131 0.1114,0.7648 0.0409,0.1508 0.081,0.3004 0.1133,0.447 0.0781,0.361 0.1675,0.6607 0.2674,0.9565 0.1064,0.3147 0.225,0.6258 0.3564,1.0021 0.0586,0.1681 0.1609,0.4937 0.2643,0.652z"/>
   <path id="_42897064" class="fil0" d="M163.914 101.802c-1.9965,0.3304 -1.611,0.38 -2.8426,1.1194l-0.2165 0.2301c-0.2834,0.211 -0.6259,0.6281 -0.8148,0.915 -0.2978,0.4519 -0.414,0.8674 -0.6469,1.3642l-0.108 1.2885 0.0507 1.2678c0.0987,0.6252 0.2502,1.3057 0.4531,1.9019 0.2165,0.6363 0.7331,1.4551 1.3126,1.7954 0.5795,0.4876 1.7262,1.1251 2.4623,1.3418 1.4053,0.4134 2.8034,0.4941 4.2424,0.2778 0.3462,-0.052 0.6076,-0.1338 0.9139,-0.2387 0.4887,-0.1675 0.7777,-0.3145 1.1717,-0.582 0.3097,-0.21 0.63,-0.5659 0.8505,-0.9925 0.1153,-0.2232 0.2038,-0.5146 0.2487,-0.7103 0.1238,-0.538 0.0997,-0.3615 -0.0439,-0.6233 -0.1502,0.025 -0.3385,0.2276 -0.4433,0.2776 -0.2263,0.1086 -0.4248,0.0887 -0.6194,0.0743 -0.1948,-0.0146 -0.3859,-0.0239 -0.5985,-0.1591 -0.2002,-0.1277 -0.4937,-0.327 -0.6264,-0.4712 -0.2536,-0.2753 -0.4756,-0.595 -0.6273,-1.0097 -0.1314,-0.3595 -0.2336,-0.7445 -0.2564,-1.0113 -0.0595,-0.6823 -0.1452,-1.8814 0.5365,-2.311 0.4331,-0.2729 1.1222,-0.2344 1.5414,0.044 0.1481,0.0981 0.2474,0.2117 0.3342,0.2954 0.052,0.0502 0.0999,0.1563 0.1507,0.1758 0.0618,0.0234 0.0238,0.0841 0.1894,0.0314l0.1471 -0.2855 0.02 -0.3066c-0.0637,-0.4229 -0.1254,-0.8497 -0.3554,-1.236 -0.1392,-0.2334 -0.1665,-0.4596 -0.3425,-0.6742 -0.4874,-0.5939 -1.2349,-1.1044 -1.8918,-1.4624 -0.0996,-0.054 -0.7386,-0.2634 -1.3715,-0.3721 -0.5943,-0.1023 -1.1831,-0.1066 -1.3139,-0.1022l-0.7272 0.0253 -0.1673 0.0053 -0.6116 0.1171z"/>
  </g>
 </g>
</svg>
